<svg width="239" height="240" viewBox="0 0 239 240" fill="none" xmlns="http://www.w3.org/2000/svg">
<g clip-path="url(#clip0_4_273)">
<path d="M106.169 10.1484C103.17 10.8135 96.956 13.0273 92.4093 15.1418C70.897 25.5655 57.8128 50.0858 61.1385 73.7028C62.7568 85.8553 68.2381 97.1661 76.7739 105.966C87.9718 117.621 101.284 123.16 117.813 123.279C134.114 123.279 147.535 117.621 158.843 105.976C193.002 70.3672 169.822 11.9254 120.583 9.4833C115.699 9.2649 109.266 9.4833 106.169 10.1484ZM137.211 32.3458C146.195 35.6714 156.728 45.9858 158.833 53.6398C160.947 61.5121 159.825 71.7074 155.954 78.9245C147.416 94.5599 127.999 105.986 116.354 102.214C111.033 100.437 103.945 92.3461 100.053 83.7988C91.6449 65.0462 88.8653 48.8548 92.7469 41.3101C98.6238 29.8937 119.699 25.6747 137.221 32.3358L137.211 32.3458ZM41.2839 118.614C13.1104 127.707 -3.51779 154.332 1.35649 182.942C6.12158 211.334 32.8557 232.519 61.2477 230.295C81.4298 228.856 98.6238 217.986 107.717 200.911C112.711 191.381 114.478 184.273 114.478 172.965C114.478 152.664 104.838 135.252 87.3067 124.381C74.9969 116.618 55.0431 114.176 41.2839 118.624V118.614ZM65.4668 136.473C92.6377 140.91 107.38 163.644 96.7376 184.938C92.4093 193.475 83.316 202.132 74.0042 206.569C67.6805 209.448 65.6852 209.895 59.8082 209.448C49.603 208.783 45.0563 204.683 39.507 190.815C32.8557 174.514 30.0761 154.997 33.4116 148.673C37.5116 141.02 44.5004 137.138 57.3661 135.47C58.0312 135.47 61.5753 135.917 65.4668 136.473ZM163.171 119.17C130.014 130.814 115.153 167.635 130.679 199.352C134.997 208.227 145.202 218.651 154.306 223.426C177.694 235.736 202.989 232.072 221.613 213.548C251.891 183.607 240.474 133.366 199.991 119.17C189.677 115.516 173.485 115.516 163.171 119.17ZM197.112 138.806C208.866 142.578 220.62 153.548 223.28 163.425C225.057 169.967 224.055 179.398 221.067 185.603C215.626 196.811 202.106 206.897 188.793 209.557C170.825 213.111 161.622 200.801 157.522 167.962C155.07 148.117 160.5 139.024 176.483 136.592C183.135 135.589 188.892 136.135 197.112 138.806Z" fill="url(#paint0_linear_4_273)"/>
</g>
<defs>
<linearGradient id="paint0_linear_4_273" x1="119.638" y1="9.40155" x2="119.638" y2="230.606" gradientUnits="userSpaceOnUse">
<stop stop-color="#9A1BD1"/>
<stop offset="1" stop-color="#6210B5"/>
</linearGradient>
<clipPath id="clip0_4_273">
<rect width="238.254" height="238.254" fill="white" transform="translate(0.512695 0.876236)"/>
</clipPath>
</defs>
</svg>
