<svg width="512" height="512" viewBox="0 0 512 512" fill="none" xmlns="http://www.w3.org/2000/svg">
<path fill-rule="evenodd" clip-rule="evenodd" d="M43.4295 393.652C39.2974 391.328 35.94 388.229 33.6156 384.097C31.033 379.965 30 375.574 30 370.926V141.333C30 131.777 34.9069 122.996 43.4295 118.348L242.29 3.6802C250.296 -1.22673 260.368 -1.22673 268.632 3.6802L467.492 118.348C475.756 122.996 480.663 131.777 480.663 141.333V370.667C480.663 380.223 475.756 389.004 467.492 393.652L268.632 508.32C260.626 513.227 250.554 513.227 242.29 508.32L43.4295 393.652ZM166.102 369.118C180.306 369.118 191.67 357.754 191.67 343.55V216.486L306.337 353.364C314.859 363.953 329.064 368.859 341.202 368.859C357.989 368.859 370.127 357.754 370.127 344.067V168.708C370.127 154.504 358.764 143.14 344.559 143.14C330.355 143.14 318.992 154.504 318.992 168.708V296.03L212.072 168.192L204.324 158.894C195.802 148.306 181.597 143.399 169.459 143.399C152.672 143.399 140.534 154.504 140.534 168.192V343.55C140.534 357.754 151.898 369.118 166.102 369.118Z" fill="#009639"/>
</svg>
