<svg width="100" height="100" viewBox="0 0 100 100" fill="none" xmlns="http://www.w3.org/2000/svg">
<g id="redux">
<g id="redux_2">
<path id="Vector" d="M69.2895 69.3019C72.9798 68.9199 75.7794 65.7387 75.652 61.9207C75.5251 58.1031 72.3434 55.0488 68.5258 55.0488H68.2715C64.3262 55.1762 61.2723 58.4848 61.3997 62.4297C61.527 64.3387 62.2903 65.993 63.4356 67.1383C59.109 75.6648 52.4918 81.9004 42.5661 87.118C35.8215 90.6812 28.8227 91.9539 21.8238 91.0633C16.0973 90.2996 11.6434 87.7547 8.84336 83.5547C4.77148 77.3191 4.38984 70.5742 7.82579 63.8297C10.2438 58.9937 14.0609 55.4305 16.4789 53.6488C15.9699 51.9945 15.2063 49.1949 14.8246 47.159C-3.62735 60.5211 -1.71837 78.5918 3.88086 87.118C8.08008 93.4812 16.6063 97.4262 26.0231 97.4262C28.568 97.4262 31.1129 97.1715 33.6582 96.5355C49.9469 93.3539 62.2907 83.682 69.2895 69.3019ZM91.6864 53.5219C82.0149 42.1957 67.7626 35.9602 51.4739 35.9602H49.4379C48.2926 33.6695 45.8747 32.1422 43.2024 32.1422H42.9477C39.0032 32.2695 35.9493 35.5781 36.0762 39.5234C36.2035 43.341 39.3848 46.3953 43.2024 46.3953H43.4567C46.2563 46.268 48.6743 44.4863 49.6922 42.0684H51.9829C61.6544 42.0684 70.8165 44.868 79.0884 50.3402C85.4509 54.5398 90.0321 60.0121 92.577 66.6293C94.7403 71.9742 94.613 77.1918 92.3224 81.6461C88.7595 88.3906 82.7786 92.0812 74.8887 92.0812C69.7985 92.0812 64.963 90.5539 62.4176 89.4086C61.018 90.6812 58.4727 92.7172 56.6911 93.9902C62.1633 96.5351 67.7626 97.9352 73.1071 97.9352C85.3235 97.9352 94.3587 91.1902 97.7946 84.4457C101.485 77.0645 101.23 64.3387 91.6864 53.5219ZM27.041 71.4648C27.1684 75.2828 30.3496 78.3367 34.1672 78.3367H34.4219C38.3668 78.2098 41.4207 74.9008 41.2934 70.9558C41.1664 67.1379 37.9848 64.084 34.1672 64.084H33.9129C33.6582 64.084 33.2762 64.084 33.0223 64.2109C27.8047 55.5574 25.6414 46.1406 26.4051 35.9598C26.9137 28.3242 29.459 21.7066 33.9129 16.2344C37.6032 11.5258 44.7293 9.23516 49.5653 9.1082C63.054 8.85352 68.7801 25.6516 69.1622 32.3965C70.8165 32.7781 73.6161 33.6691 75.5251 34.3055C73.9977 13.6898 61.2723 3 49.0563 3C37.6032 3 27.041 11.2719 22.8414 23.4887C16.9879 39.7777 20.8055 55.4305 27.9317 67.7746C27.2957 68.6652 26.9137 70.0652 27.041 71.4652V71.4648Z" fill="#764ABC"/>
</g>
</g>
</svg>
