<svg width="100" height="100" viewBox="0 0 100 100" fill="none" xmlns="http://www.w3.org/2000/svg">
<g clip-path="url(#clip0_790_535)">
<path d="M26.8778 27.0585L20.4525 20.6332V66.968L20.543 69.14C20.543 70.1354 20.724 71.3119 21.086 72.4884L71.9457 90.4069L84.6154 84.7961L26.8778 27.0585Z" fill="#00C4B3"/>
<path d="M84.6153 84.796L71.9456 90.4069L21.1764 72.4883C22.1719 76.1987 24.2533 80.3616 26.6063 82.7145L43.1673 99.1851L80.0904 99.2756L84.6153 84.796Z" fill="#22D3C5"/>
<path d="M20.6335 20.6332L0.905039 50.4974C-0.723921 52.2169 0.090559 55.8368 2.71499 58.5517L14.1177 70.0449L21.267 72.5789C20.9955 71.4024 20.724 70.2259 20.724 69.2304L20.6335 67.0585V20.6332Z" fill="#0075C9"/>
<path d="M72.3077 21.1761C71.1312 20.9046 69.9548 20.7236 68.9593 20.6331L66.6969 20.5426H20.4525L84.6154 84.7055L90.2263 72.0358L72.3077 21.1761Z" fill="#0075C9"/>
<path d="M82.534 26.606C80.1811 24.2531 76.1087 22.0811 72.3078 21.1761L90.2264 72.0359L84.6155 84.7055L98.3712 80.2712V42.5336L82.534 26.606Z" fill="#00A8E1"/>
<path d="M69.7737 14.1173L58.2805 2.71463C55.6561 0.0901928 52.0361 -0.724287 50.2262 0.904673L20.3619 20.6332H66.6063L68.8687 20.7237C69.8642 20.7237 71.0407 20.9047 72.2171 21.2667L69.7737 14.1173Z" fill="#00C4B3"/>
</g>
<defs>
<clipPath id="clip0_790_535">
<rect width="100" height="100" fill="white" transform="translate(0 -0.000366211)"/>
</clipPath>
</defs>
</svg>
