<svg width="84" height="31" viewBox="0 0 84 31" fill="none" xmlns="http://www.w3.org/2000/svg">
<path d="M42.2089 9.1964C42.3131 9.09566 42.374 8.95836 42.3788 8.81335H42.3808C42.4511 6.05333 41.8123 3.8975 40.4837 2.40506C39.0808 0.829787 36.932 0.020885 34.0966 0.000488281C31.2663 0.000488281 28.8282 0.884759 27.0453 2.55778C25.359 4.14101 24.4075 6.33266 24.3646 8.72877C24.2923 12.8603 26.6265 15.4878 29.2296 18.0309C31.2449 20.1041 31.6147 21.1292 31.5944 22.2988C31.5699 23.6519 30.926 24.4282 29.8267 24.4282C29.3733 24.4282 29.0096 24.2875 28.7488 24.0104C28.3412 23.5825 28.1609 22.8092 28.2271 21.7742C28.2381 21.705 28.2342 21.6341 28.2156 21.5667C28.2076 21.5379 28.1971 21.51 28.1841 21.4832C28.1666 21.4473 28.1448 21.4138 28.1191 21.3829C28.0676 21.318 28.0023 21.2653 27.9279 21.2287C27.8536 21.1919 27.772 21.1722 27.6891 21.171H21.7391C21.594 21.1705 21.4545 21.2267 21.35 21.3277C21.2456 21.4284 21.1846 21.566 21.1798 21.711C21.0402 24.58 21.7085 26.803 23.1665 28.318C24.6031 29.8097 26.763 30.5657 29.5903 30.5657C35.1267 30.5657 38.7649 27.1067 38.8597 21.7558C38.9178 18.4465 37.7104 15.9432 34.6977 13.117C32.4094 10.898 31.6056 9.60608 31.631 8.18478C31.6534 6.91024 32.4196 6.18068 33.6076 6.18068C34.7956 6.18068 35.3763 6.99779 35.3763 8.67579C35.3763 9.04766 35.6911 9.35336 36.0681 9.35336H41.8204C41.9654 9.35361 42.1047 9.29714 42.2089 9.1964Z" fill="#0AE448"/>
<path d="M24.2587 14.2896V14.2764H24.2556C24.2607 13.9993 24.0681 13.7456 23.7951 13.71C23.7717 13.7048 23.7462 13.7048 23.7217 13.7048H13.1972V13.717C12.9251 13.7496 12.704 13.9342 12.65 14.1777L11.5537 18.9395C11.5392 19.0037 11.5396 19.0704 11.555 19.1343C11.5703 19.1982 11.6002 19.2579 11.6424 19.3084C11.6973 19.3731 11.7657 19.4251 11.8428 19.4607C11.9198 19.4962 12.0038 19.5144 12.0886 19.5141H13.6923C13.785 19.5141 13.9062 19.5276 13.95 19.5845C13.9918 19.6395 13.9888 19.7629 13.945 19.9218C13.6332 21.066 12.8915 22.3202 11.9704 23.0455C11.0484 23.7698 9.52625 24.2039 8.45953 23.5499C7.25631 22.8112 7.05253 21.0292 7.0026 19.7619C6.89763 17.0394 7.43049 14.306 8.47688 11.7895C9.22571 9.98814 10.6378 6.73811 13.0321 6.73811C14.3892 6.73811 15.0718 7.85868 15.1227 10.1613C15.124 10.2128 15.1345 10.2633 15.1534 10.3105C15.1745 10.3632 15.2061 10.4117 15.2468 10.4528C15.324 10.5304 15.428 10.5757 15.5374 10.5789H21.7829C21.9289 10.5789 22.069 10.5217 22.1735 10.4197C22.278 10.3177 22.3385 10.1789 22.3422 10.0329C22.3382 6.70328 21.5781 4.16042 20.0804 2.47122C18.6642 0.87456 16.6286 0.0748615 14.0357 0.0972481C5.51202 0.0972481 1.0852 8.70937 0.147822 17.2444C-0.371734 21.7904 0.486108 25.564 2.56253 27.8688C4.13357 29.613 5.98581 30.4963 8.73258 30.4963C11.7901 30.4963 14.0784 29.8177 15.9348 28.3628C18.1171 26.6542 19.7697 23.8086 20.9902 19.6681C21.0038 19.6223 21.0317 19.5823 21.0699 19.5537C21.1081 19.5248 21.1545 19.5094 21.2022 19.5092H22.5257C22.8353 19.5092 23.1043 19.3124 23.1634 19.0435L24.2587 14.2896Z" fill="#0AE448"/>
<path fill-rule="evenodd" clip-rule="evenodd" d="M60.2084 29.559L60.2461 1.09967C60.2472 1.02853 60.234 0.95764 60.2074 0.891475C60.1954 0.861875 60.1808 0.83327 60.1638 0.806406C60.143 0.773323 60.1186 0.742728 60.0909 0.714869C60.0677 0.691239 60.0424 0.670096 60.0153 0.651441C59.984 0.6298 59.9504 0.611394 59.915 0.596967C59.8491 0.569854 59.7784 0.556173 59.7071 0.556671H50.8046C50.505 0.556671 50.3736 0.814365 50.288 0.984504L37.3976 29.3846V29.3899L37.3926 29.3971C37.2499 29.7463 37.5209 30.1204 37.8989 30.1204H44.122C44.4582 30.1204 44.6813 30.0184 44.7903 29.8065L46.0262 26.8365C46.178 26.4403 46.2065 26.4035 46.6385 26.4035H52.5844C52.9981 26.4035 53.0062 26.4117 53.0002 26.8161L52.8667 29.5774C52.8662 29.6078 52.8683 29.6381 52.873 29.668C52.8792 29.708 52.8901 29.7473 52.9053 29.7851C52.9319 29.8513 52.9714 29.9112 53.0215 29.962C53.0716 30.0125 53.1313 30.0525 53.1971 30.0796C53.2629 30.107 53.3334 30.1207 53.4046 30.1204H59.6919C59.7697 30.1214 59.8468 30.1052 59.9177 30.0732C59.9887 30.0411 60.0517 29.9941 60.1025 29.9349C60.1462 29.8836 60.1784 29.8234 60.1967 29.7585C60.2149 29.6936 60.219 29.6257 60.2084 29.559ZM49.1948 20.0574C49.1479 20.0574 49.1009 20.0559 49.0542 20.0522C49.0324 20.0504 49.0112 20.0437 48.9922 20.033C48.9732 20.0221 48.9569 20.0071 48.9442 19.9892C48.9382 19.9808 48.933 19.9716 48.9289 19.9621C48.9244 19.9517 48.9212 19.9407 48.9191 19.9295C48.917 19.9173 48.9163 19.9052 48.9171 19.893C48.9177 19.8833 48.9193 19.8738 48.9217 19.8646C48.9287 19.8412 48.9375 19.8129 48.9485 19.7798C48.9566 19.7554 48.9659 19.7286 48.9768 19.6997L53.4352 8.66758C53.4752 8.55888 53.5215 8.45242 53.5737 8.3487C53.6461 8.19995 53.7337 8.18975 53.7612 8.29995C53.7846 8.39148 53.2498 19.6273 53.2498 19.6273C53.208 20.0482 53.1886 20.0653 52.774 20.1002L49.1988 20.0594H49.1907L49.1948 20.0574Z" fill="#0AE448"/>
<path fill-rule="evenodd" clip-rule="evenodd" d="M68.1645 0.556671H72.8909L72.896 0.553686C79.8669 0.553686 83.3473 3.71318 83.2372 9.94835C83.1088 17.2546 78.6565 22.6239 71.9526 23.8616C71 24.037 70.031 24.1051 69.0631 24.1002L65.8263 24.0857C65.7732 24.0855 65.7221 24.1061 65.6841 24.1429C65.6459 24.18 65.6239 24.2305 65.6225 24.2835C65.6218 24.3193 65.6313 24.3546 65.6499 24.3852C65.6685 24.4158 65.6954 24.4407 65.7275 24.4566L66.1217 24.6616L67.1406 25.1934L68.1645 25.7262C68.2703 25.7814 68.3763 25.8366 68.4824 25.8911C68.7086 26.0095 68.7962 26.205 68.7453 26.4577L68.028 29.6946C67.9689 29.9645 67.7519 30.1204 67.434 30.1204H61.5268C61.4421 30.1204 61.3584 30.102 61.2815 30.0664C61.2046 30.0309 61.1364 29.9791 61.0816 29.9147C61.0393 29.864 61.0092 29.8043 60.9937 29.7401C60.9781 29.6759 60.9775 29.6092 60.9919 29.5448L67.5695 0.986742C67.6347 0.689249 67.9149 0.556671 68.1645 0.556671ZM71.1558 17.5511H71.2822C74.3845 17.4257 76.0758 13.7598 76.138 10.2031C76.1736 8.14821 75.4237 6.94481 74.0789 6.90402H69.758C69.7056 6.90402 69.6553 6.92441 69.6178 6.96098C69.5803 6.99754 69.5586 7.04729 69.5573 7.09978C69.5564 7.13559 69.5655 7.17116 69.5837 7.20201C69.6019 7.2331 69.6284 7.25822 69.6602 7.27489C69.6602 7.27489 72.3927 8.71559 72.5802 8.81956C72.7269 8.89991 72.7289 9.03647 72.681 9.27401C72.6805 9.27924 72.2623 11.1174 71.8218 13.0556C71.3302 15.2186 70.8108 17.5066 70.8135 17.5103C70.8217 17.5205 70.8716 17.5511 71.1558 17.5511Z" fill="#0AE448"/>
</svg>
