<svg width="101" height="120" viewBox="0 0 101 120" fill="none" xmlns="http://www.w3.org/2000/svg">
<path d="M50.0892 61.5095L74.881 46.1049L49.9108 31L25 46.4047L50.0892 61.5095Z" fill="#0084C1"/>
<path d="M75 75.5954L74.8811 46.1049L50.0892 61.5094L50.2676 90.9999L75 75.5954Z" fill="#00D3B9"/>
<path d="M25 46.4047L50.0892 61.5094L50.2676 90.9999L25.2378 75.8351L25 46.4047Z" fill="#82EDDF"/>
<path fill-rule="evenodd" clip-rule="evenodd" d="M97.1262 87.1576L96.9022 32.0401L49.9717 3.88769L3.14677 32.6026L3.59476 87.5964L50.6465 115.866L97.1262 87.1576ZM50.6681 119.379L100.133 88.8265L99.8953 30.3373L49.9546 0.379028L0.133057 30.9315L0.608559 89.3021L50.6681 119.379Z" fill="black"/>
<path fill-rule="evenodd" clip-rule="evenodd" d="M82.9934 80.2667L82.8379 41.3378L50.3906 21.5256L18.0133 41.7355L18.3242 80.5737L50.858 100.47L82.9934 80.2667ZM50.8799 104L86 81.92L85.8312 39.6505L50.3733 18L15 40.08L15.3376 82.2637L50.8799 104Z" fill="black"/>
</svg>
