<svg width="100" height="100" viewBox="0 0 81 100" fill="none" xmlns="http://www.w3.org/2000/svg">
    <path fill-rule="evenodd" clip-rule="evenodd" d="M0.00320212 9.59981L3.10319 92.1496C3.15084 93.4107 3.67082 94.6029 4.55996 95.4985C5.4491 96.3941 6.64243 96.9228 7.90318 96.9796L75.013 99.9946C75.6914 100.025 76.3689 99.9177 77.0047 99.6792C77.6405 99.4406 78.2215 99.0759 78.7125 98.6068C79.2035 98.1377 79.5945 97.5741 79.8618 96.9498C80.1292 96.3256 80.2673 95.6537 80.268 94.9746V5.02982C80.2687 4.34254 80.1284 3.66242 79.8558 3.03151C79.5832 2.4006 79.1841 1.83232 78.6831 1.36181C78.1822 0.891294 77.59 0.528551 76.9432 0.296008C76.2965 0.063465 75.6089 -0.0339339 74.923 0.00983372L69.4035 0.354998L69.8085 11.8948C69.8137 12.038 69.7777 12.1796 69.7049 12.3029C69.6321 12.4263 69.5255 12.5262 69.3977 12.5909C69.2699 12.6556 69.1263 12.6823 68.9838 12.668C68.8413 12.6536 68.7058 12.5987 68.5935 12.5098L64.8735 9.57984L60.4736 12.9198C60.3601 13.0051 60.2248 13.0564 60.0833 13.0679C59.9418 13.0793 59.8 13.0503 59.6743 12.9843C59.5486 12.9184 59.4443 12.8181 59.3733 12.6951C59.3024 12.5722 59.2678 12.4317 59.2736 12.2898L59.7434 0.959102L4.72319 4.39982C3.41369 4.47984 2.18727 5.06833 1.30551 6.03976C0.423745 7.0112 -0.0435806 8.2887 0.00320212 9.59981ZM46.9386 38.6598C46.9386 40.6148 60.1186 39.6798 61.8836 38.3048C61.8836 24.9848 54.7386 17.9848 41.6486 17.9848C28.5586 17.9848 21.2286 25.0948 21.2286 35.7548C21.2286 46.4397 29.5186 51.0947 36.5636 55.0497C41.7686 57.9697 46.2886 60.5097 46.2886 64.8147C46.2886 67.6547 44.8986 69.3447 41.8336 69.3447C37.8436 69.3447 36.2636 67.3047 36.4536 60.3747C36.4536 58.8747 21.2286 58.4047 20.7636 60.3747C19.5837 77.1697 30.0486 82.0147 42.0236 82.0147C53.6236 82.0147 62.7235 75.8347 62.7235 64.6347C62.7235 52.9557 53.9601 48.3105 46.7254 44.4757L46.7236 44.4748C41.6286 41.7748 37.2886 39.4748 37.2886 35.3998C37.2886 31.3998 40.2586 30.8698 42.0186 30.8698C43.8786 30.8698 47.2186 31.1948 46.9386 38.6598Z" fill="#FF4785"/>
</svg>