<svg width="100" height="100" viewBox="0 0 100 100" fill="none" xmlns="http://www.w3.org/2000/svg">
    <path fill-rule="evenodd" clip-rule="evenodd" d="M100 0.000488281H0V100H100V0.000488281ZM52.8126 37.0317H48.0157C45.3594 37.0317 39.2657 37.0161 34.4532 36.9849C29.6406 36.9536 23.8594 36.9536 21.6094 36.9849L17.5 37.0317V45.313H30.4688V82.1411L31.5313 82.2349C32.8594 82.3755 39.0313 82.3755 39.5 82.2505L39.8438 82.1567V45.313H52.8126V37.0317ZM77.2657 82.313C80.672 81.3911 82.7189 80.2661 84.6251 78.2505C86.9689 75.7817 88.047 72.2974 87.672 68.4849C87.1564 63.4224 85.172 60.4849 80.297 57.6255C79.2501 57.0005 75.2345 55.0005 75.047 55.0005C74.922 55.0005 73.2657 54.2192 71.3282 53.2661C68.3282 51.7817 67.5157 50.7817 67.5001 48.6567C67.5001 47.2036 68.0001 46.1567 69.0313 45.4692C70.0157 44.813 70.797 44.6411 72.2657 44.7349C74.3282 44.8599 75.1876 45.4067 77.3126 47.9536C77.6564 48.3599 77.8282 48.4536 78.0782 48.3755C78.4845 48.2505 84.7189 44.0942 84.8751 43.8599C85.1095 43.4692 82.7189 40.5317 81.1407 39.2817C79.047 37.6099 76.8751 36.8286 73.6876 36.563C72.5782 36.4849 71.3907 36.4224 71.0313 36.4224C67.8595 36.5317 64.547 37.688 62.422 39.438C61.7188 40.0161 61.3594 40.3755 60.3594 41.5474C59.8751 42.0942 58.8126 44.2661 58.4844 45.3911C58.2501 46.1411 58.2032 46.8599 58.2188 49.063C58.2344 52.2036 58.3751 52.8911 59.4688 55.0005C60.3126 56.6411 60.5782 57.0005 61.9219 58.313C63.7345 60.0786 65.9688 61.3911 70.9376 63.5942C75.7501 65.7192 76.9376 66.4692 77.8126 67.9067C78.1251 68.4224 78.1876 68.7349 78.1876 69.8599C78.2032 71.0786 78.1564 71.2505 77.7501 71.8911C77.1564 72.7974 76.6563 73.2505 75.672 73.7036C74.7501 74.1255 73.0313 74.5317 72.0938 74.5317C71.0782 74.5317 68.9688 74.0786 68.0157 73.6724C66.4688 72.9849 64.2813 70.9692 63.3438 69.3911C63.1876 69.1255 62.9845 68.9067 62.8751 68.9067C62.7657 68.9067 61.797 69.4224 60.7345 70.063C59.6719 70.7036 58.4532 71.4224 58.0313 71.6411C57.6625 71.8324 57.1383 72.1431 56.7827 72.3539C56.7315 72.3842 56.6839 72.4125 56.6407 72.438C56.5451 72.4945 56.4435 72.5558 56.3422 72.6169C56.0792 72.7755 55.8186 72.9328 55.6719 73.0005C55.4688 73.0942 55.3126 73.2349 55.3126 73.2974C55.3126 73.5161 56.3907 75.2661 57.0469 76.1099C59.3594 79.0942 62.7501 81.2036 66.9532 82.2817C68.5734 82.7024 68.8423 82.7036 72.1579 82.7191L72.1876 82.7192C75.5313 82.7349 75.7813 82.7192 77.2657 82.313Z" fill="#017ACB"/>
</svg>