<svg width="677" height="232" viewBox="0 0 677 232" fill="none" xmlns="http://www.w3.org/2000/svg">
<g clip-path="url(#clip0_902_2)">
<path d="M380.384 135.951C376.55 143.173 370.763 149.172 363.683 153.262C356.532 157.427 348.386 159.509 339.244 159.508C330.103 159.507 321.957 157.425 314.806 153.262C307.724 149.174 301.936 143.175 298.105 135.951C294.121 128.575 292.13 120.316 292.131 111.174C292.132 102.032 294.124 93.7723 298.105 86.395C301.939 79.1731 307.726 73.1749 314.806 69.085C321.955 64.9223 330.101 62.8403 339.244 62.839C348.388 62.837 356.534 64.919 363.683 69.085C370.762 73.1762 376.549 79.1741 380.384 86.395C384.366 93.7737 386.357 102.033 386.358 111.174C386.358 120.317 384.367 128.576 380.384 135.951ZM316.164 127.194C318.337 131.902 321.414 135.59 325.397 138.259C329.379 140.929 333.995 142.264 339.246 142.265C344.405 142.265 348.976 140.93 352.958 138.259C356.941 135.589 360.019 131.901 362.191 127.194C364.363 122.487 365.449 117.147 365.449 111.174C365.449 105.199 364.363 99.859 362.191 95.153C360.019 90.447 356.941 86.7583 352.958 84.087C348.976 81.4163 344.405 80.0813 339.246 80.082C333.995 80.082 329.378 81.417 325.397 84.087C321.416 86.757 318.338 90.4457 316.164 95.153C313.992 99.8597 312.906 105.2 312.906 111.174C312.906 117.147 313.992 122.487 316.164 127.194ZM670.937 135.951C667.103 143.173 661.316 149.172 654.236 153.262C647.085 157.427 638.939 159.509 629.798 159.508C620.656 159.507 612.51 157.425 605.359 153.262C598.278 149.174 592.49 143.174 588.658 135.951C584.674 128.575 582.683 120.316 582.684 111.174C582.685 102.032 584.677 93.7723 588.658 86.395C592.492 79.1731 598.279 73.1749 605.359 69.085C612.508 64.9223 620.654 62.8403 629.798 62.839C638.942 62.8377 647.088 64.9197 654.236 69.085C661.315 73.1762 667.102 79.1741 670.937 86.395C674.919 93.7737 676.91 102.033 676.911 111.174C676.911 120.317 674.92 128.576 670.937 135.951ZM606.718 127.194C608.89 131.902 611.967 135.59 615.95 138.259C619.933 140.929 624.549 142.264 629.799 142.265C634.958 142.265 639.529 140.93 643.512 138.259C647.494 135.589 650.571 131.901 652.744 127.194C654.917 122.487 656.003 117.147 656.002 111.174C656.002 105.199 654.916 99.859 652.744 95.153C650.572 90.447 647.495 86.7583 643.512 84.087C639.529 81.4157 634.958 80.0807 629.799 80.082C624.548 80.082 619.932 81.417 615.95 84.087C611.968 86.757 608.891 90.4457 606.718 95.153C604.545 99.8603 603.459 105.201 603.459 111.174C603.459 117.147 604.545 122.487 606.718 127.194ZM158.1 142.017L153.617 129.279L147.715 112.506L143.445 100.368L137.855 84.482L131.361 66.03H99.864L94.837 80.318L90.355 93.056L68.092 156.319H88.865L95.382 137.854H126.884L121.294 121.967H100.949L105.219 109.829L114.138 84.482L115.613 80.287L117.088 84.482L142.354 156.305L142.36 156.32H163.133L158.1 142.017ZM261.993 74.108C266.699 79.4947 269.052 86.4413 269.052 94.948C269.052 103.91 266.721 111.129 262.06 116.604C257.399 122.081 250.18 124.819 240.405 124.819H213.251V156.317H192.477V66.03H240.405C250.09 66.03 257.286 68.7227 261.993 74.108ZM233.889 108.798C238.685 108.798 242.17 107.576 244.343 105.132C246.516 102.688 247.602 99.339 247.601 95.085C247.601 86.395 243.075 82.0503 234.024 82.051H213.251V108.798H233.889ZM434.986 66.03V139.89H477.211V156.318H414.213V66.03H434.986ZM520.951 66.03V139.89H563.175V156.318H500.178V66.03H520.951Z" fill="black"/>
<path d="M179.013 36.657C180.903 36.6572 182.767 36.2124 184.454 35.3587C186.14 34.5049 187.602 33.2661 188.721 31.7426C189.84 30.219 190.584 28.4535 190.894 26.5888C191.204 24.7241 191.071 22.8126 190.505 21.009C189.939 19.2051 188.956 17.5597 187.636 16.2062C186.316 14.8527 184.696 13.8291 182.907 13.2183C181.118 12.6074 179.21 12.4265 177.338 12.6902C175.466 12.9539 173.682 13.6547 172.131 14.736C154.113 4.64875 133.724 -0.430128 113.08 0.0270051C92.4357 0.484138 72.2906 6.4606 54.7373 17.3355C37.184 28.2105 22.8627 43.5871 13.2613 61.8682C3.65986 80.1492 -0.871489 100.668 0.13799 121.292C1.14791 141.916 7.66117 161.893 19.0012 179.15C30.3413 196.406 46.0947 210.311 64.625 219.421C83.1557 228.531 103.788 232.512 124.378 230.953C144.967 229.393 164.764 222.348 181.711 210.551C182.219 210.197 182.653 209.746 182.986 209.224C183.659 208.17 183.886 206.892 183.619 205.67C183.486 205.065 183.236 204.492 182.881 203.984C182.527 203.476 182.076 203.042 181.554 202.709C181.032 202.375 180.45 202.147 179.84 202.039C179.23 201.931 178.605 201.944 178 202.077C177.395 202.209 176.822 202.46 176.314 202.815C160.766 213.63 142.609 220.091 123.724 221.527C104.839 222.964 85.9138 219.324 68.909 210.985C56.18 204.751 44.8276 196.033 35.5209 185.343C26.2142 174.653 19.1415 162.209 14.7198 148.743C10.298 135.277 8.61654 121.062 9.77456 106.936C10.9326 92.8097 14.9066 79.0584 21.4625 66.4923C28.0183 53.9262 37.0233 42.7996 47.9467 33.7682C58.87 24.7369 71.4908 17.9835 85.0651 13.9062C98.6394 9.8289 112.893 8.51013 126.984 10.0276C141.076 11.5451 154.722 15.8682 167.117 22.742C166.846 24.4605 166.952 26.2173 167.425 27.8913C167.899 29.5653 168.729 31.1168 169.86 32.439C170.991 33.7611 172.394 34.8227 173.974 35.5509C175.554 36.279 177.273 36.6563 179.013 36.657Z" fill="black"/>
</g>
<defs>
<clipPath id="clip0_902_2">
<rect width="677" height="232" fill="white"/>
</clipPath>
</defs>
</svg>
