<svg width="100" height="100" viewBox="0 0 100 100" fill="none" xmlns="http://www.w3.org/2000/svg">
<g id="docker">
<g id="docker_2">
<path id="Vector" d="M99.014 41.0882C98.7428 40.8728 96.211 38.9611 90.8716 38.9611C89.4617 38.9673 88.0548 39.0882 86.6646 39.3227C85.6312 32.2396 79.7751 28.7862 79.5125 28.6313L78.0788 27.8044L77.1358 29.1652C75.9549 30.9931 75.0928 33.0081 74.5867 35.1245C73.6307 39.1678 74.2121 42.9655 76.266 46.2122C73.7858 47.5944 69.8072 47.9346 69.002 47.9647H3.13051C1.40996 47.967 0.0138216 49.3574 0.00444499 51.0778C-0.0723876 56.8485 0.905303 62.5848 2.88937 68.0042C5.15852 73.955 8.5344 78.3384 12.9264 81.021C17.8481 84.0351 25.8441 85.7574 34.908 85.7574C39.0026 85.7703 43.0896 85.3997 47.1152 84.6509C52.7113 83.6233 58.0961 81.6674 63.047 78.8637C67.1264 76.5013 70.7979 73.496 73.9194 69.9634C79.1382 64.0557 82.2472 57.4762 84.5593 51.629H85.4807C91.1946 51.629 94.7083 49.3425 96.6459 47.4264C97.9336 46.2044 98.9389 44.7157 99.5912 43.0646L100 41.8676L99.014 41.0882Z" fill="#2496ED"/>
<path id="Vector_2" d="M9.23628 46.0357H18.0633C18.4891 46.0357 18.8341 45.6906 18.8341 45.265V37.4024C18.8364 36.9766 18.4933 36.6297 18.0677 36.6273C18.0663 36.6273 18.0647 36.6273 18.0633 36.6273H9.23628C8.81055 36.6273 8.46558 36.9724 8.46558 37.398V37.4024V45.2649C8.46558 45.6906 8.81055 46.0357 9.23628 46.0357Z" fill="#2496ED"/>
<path id="Vector_3" d="M21.4004 46.0357H30.2275C30.6532 46.0357 30.9982 45.6906 30.9982 45.265V37.4024C31.0006 36.9766 30.6574 36.6297 30.2317 36.6273C30.2303 36.6273 30.2288 36.6273 30.2274 36.6273H21.4003C20.9722 36.6273 20.6252 36.9743 20.6252 37.4024V45.2649C20.6278 45.6913 20.974 46.0357 21.4004 46.0357Z" fill="#2496ED"/>
<path id="Vector_4" d="M33.7496 46.0357H42.5767C43.0024 46.0357 43.3474 45.6906 43.3474 45.265V37.4024C43.3498 36.9766 43.0066 36.6297 42.5809 36.6273C42.5795 36.6273 42.5779 36.6273 42.5765 36.6273H33.7495C33.3237 36.6273 32.9788 36.9724 32.9788 37.398V37.4024V45.2649C32.9789 45.6906 33.324 46.0357 33.7496 46.0357Z" fill="#2496ED"/>
<path id="Vector_5" d="M45.9526 46.0357H54.7797C55.2061 46.0357 55.5523 45.6915 55.5547 45.265V37.4024C55.5547 36.9743 55.2078 36.6273 54.7797 36.6273H45.9526C45.5269 36.6273 45.1819 36.9724 45.1819 37.398V37.4024V45.2649C45.1819 45.6906 45.527 46.0357 45.9526 46.0357Z" fill="#2496ED"/>
<path id="Vector_6" d="M21.4004 34.7242H30.2275C30.6538 34.7218 30.9982 34.3754 30.9982 33.9492V26.0866C30.9982 25.6609 30.6531 25.3159 30.2275 25.3159H21.4004C20.9741 25.3159 20.6277 25.6602 20.6254 26.0866V33.9492C20.6277 34.3763 20.9733 34.7218 21.4004 34.7242Z" fill="#2496ED"/>
<path id="Vector_7" d="M33.7496 34.7242H42.5767C43.0029 34.7218 43.3474 34.3754 43.3474 33.9492V26.0866C43.3474 25.6609 43.0022 25.3159 42.5767 25.3159H33.7496C33.3239 25.3159 32.9789 25.661 32.9789 26.0866V33.9492C32.9789 34.3754 33.3233 34.7218 33.7496 34.7242Z" fill="#2496ED"/>
<path id="Vector_8" d="M45.9526 34.7242H54.7797C55.2068 34.7218 55.5523 34.3763 55.5547 33.9492V26.0866C55.5523 25.6602 55.2061 25.3159 54.7797 25.3159H45.9526C45.5269 25.3159 45.1819 25.661 45.1819 26.0866V33.9492C45.1819 34.3754 45.5263 34.7218 45.9526 34.7242Z" fill="#2496ED"/>
<path id="Vector_9" d="M45.9526 23.4084H54.7797C55.2061 23.4084 55.5523 23.064 55.5547 22.6377V14.7707C55.5523 14.3443 55.2061 14 54.7797 14H45.9526C45.5269 14 45.1819 14.345 45.1819 14.7707V22.6376C45.1819 23.0633 45.527 23.4084 45.9526 23.4084Z" fill="#2496ED"/>
<path id="Vector_10" d="M58.2631 46.0357H67.0902C67.5166 46.0357 67.8629 45.6915 67.8652 45.265V37.4024C67.8652 36.9743 67.5183 36.6273 67.0902 36.6273H58.2631C57.8376 36.6273 57.4924 36.9724 57.4924 37.398V37.4024V45.2649C57.4924 45.6906 57.8376 46.0357 58.2631 46.0357Z" fill="#2496ED"/>
</g>
</g>
</svg>
