<svg width="100" height="100" viewBox="0 0 100 100" fill="none" xmlns="http://www.w3.org/2000/svg">
    <path fill-rule="evenodd" clip-rule="evenodd" d="M12.8941 100C5.77305 100 0 94.2277 0 87.1059V87.1055V12.8941C0 5.77305 5.77226 0 12.8945 0H87.1059C94.227 0 100 5.77226 100 12.8945V87.1059C100 94.227 94.2277 100 87.1055 100H12.8941ZM41.468 30.0723V44.2336H54.9508C57.3255 44.2336 59.2759 43.6684 60.802 42.5375C62.3286 41.407 63.0919 39.5695 63.0919 37.0254C63.0919 35.6125 62.8372 34.4535 62.3286 33.5488C61.8196 32.6445 61.1411 31.9379 60.2934 31.4289C59.4454 30.9199 58.47 30.5668 57.3676 30.3691C56.2653 30.1711 55.1208 30.0723 53.9333 30.0723H41.468ZM28.1543 80.2734V19.7266H56.6469C59.5302 19.7266 62.1591 19.9809 64.5333 20.4898C66.9079 20.9984 68.9431 21.8324 70.6388 22.9914C72.3349 24.1504 73.6493 25.691 74.5821 27.6129C75.515 29.5352 75.9814 31.9094 75.9814 34.7359C75.9814 37.7891 75.2888 40.3328 73.904 42.368C72.5189 44.4031 70.4692 46.0711 67.7556 47.3711C71.4868 48.4453 74.2712 50.325 76.1087 53.0105C77.9458 55.6957 78.8646 58.932 78.8646 62.7199C78.8646 65.7727 78.2712 68.4156 77.0837 70.6488C75.8966 72.8816 74.2993 74.7051 72.2927 76.1184C70.2856 77.5316 67.9962 78.5773 65.4239 79.2559C62.8516 79.9344 60.2087 80.2734 57.495 80.2734H28.1543ZM41.468 53.307V69.9277H55.7141C57.0145 69.9277 58.2579 69.8004 59.4454 69.5465C60.6325 69.2918 61.6786 68.868 62.5829 68.2742C63.4876 67.6809 64.2083 66.875 64.7454 65.8574C65.2825 64.8398 65.5513 63.5398 65.5513 61.9566C65.5513 58.8473 64.6747 56.6285 62.9223 55.3C61.1696 53.9711 58.8516 53.307 55.9684 53.307H41.468Z" fill="#563D7C"/>
</svg>