<svg width="100" height="100" viewBox="0 0 100 100" fill="none" xmlns="http://www.w3.org/2000/svg">
<path fill-rule="evenodd" clip-rule="evenodd" d="M36.5913 -0.000610352C31.0745 0.00346712 26.6097 4.48053 26.6138 9.99734C26.6097 15.5142 31.0786 19.9912 36.5954 19.9953H46.5771V10.0014C46.5811 4.48461 42.1122 0.00754459 36.5913 -0.000610352C36.5954 -0.000610352 36.5954 -0.000610352 36.5913 -0.000610352ZM36.5913 26.666H9.98178C4.46496 26.6701 -0.00394426 31.1472 0.000133214 36.664C-0.00802173 42.1808 4.46088 46.6579 9.9777 46.666H36.5913C42.1082 46.662 46.5771 42.1849 46.573 36.6681C46.5771 31.1472 42.1082 26.6701 36.5913 26.666Z" fill="#36C5F0"/>
<path fill-rule="evenodd" clip-rule="evenodd" d="M99.8003 36.664C99.8044 31.1472 95.3355 26.6701 89.8186 26.666C84.3018 26.6701 79.8329 31.1472 79.837 36.664V46.666H89.8186C95.3355 46.662 99.8044 42.1849 99.8003 36.664ZM73.1866 36.664V9.99734C73.1907 4.48461 68.7259 0.00754459 63.2091 -0.000610352C57.6923 0.00346712 53.2234 4.48053 53.2274 9.99734V36.664C53.2193 42.1808 57.6882 46.6579 63.205 46.666C68.7218 46.662 73.1907 42.1849 73.1866 36.664Z" fill="#2EB67D"/>
<path fill-rule="evenodd" clip-rule="evenodd" d="M63.205 99.9994C68.7219 99.9954 73.1908 95.5183 73.1867 90.0015C73.1908 84.4847 68.7219 80.0076 63.205 80.0035H53.2234V90.0015C53.2193 95.5142 57.6882 99.9913 63.205 99.9994ZM63.205 73.3287H89.8187C95.3355 73.3246 99.8044 68.8476 99.8003 63.3308C99.8085 57.8139 95.3396 53.3369 89.8228 53.3287H63.2091C57.6923 53.3328 53.2234 57.8099 53.2275 63.3267C53.2234 68.8476 57.6882 73.3246 63.205 73.3287Z" fill="#ECB22E"/>
<path fill-rule="evenodd" clip-rule="evenodd" d="M0.000124858 63.3307C-0.00395261 68.8475 4.46495 73.3246 9.98177 73.3287C15.4986 73.3246 19.9675 68.8475 19.9634 63.3307V53.3328H9.98177C4.46495 53.3368 -0.00395261 57.8139 0.000124858 63.3307ZM26.6138 63.3307V89.9974C26.6056 95.5142 31.0745 99.9912 36.5913 99.9994C42.1082 99.9953 46.5771 95.5183 46.573 90.0014V63.3389C46.5811 57.8221 42.1122 53.345 36.5954 53.3368C31.0745 53.3368 26.6097 57.8139 26.6138 63.3307Z" fill="#E01E5A"/>
</svg>
