<svg width="118" height="118" viewBox="0 0 118 118" fill="none" xmlns="http://www.w3.org/2000/svg">
    <path d="M87.5657 34H46.4333C38.4622 34 32 41.0692 32 49.7894C32 58.5096 38.4611 65.58 46.4333 65.58H87.5657C95.5368 65.58 102 58.5096 102 49.7894C102 41.0692 95.5389 34 87.5657 34Z" fill="#03030F" stroke="#03030F" stroke-miterlimit="10"/>
    <path d="M79.182 34.068L25.737 34C17.035 33.99 9.99001 41.035 10 49.737C10.011 58.439 17.075 65.502 25.777 65.513L79.221 65.58C87.923 65.59 94.968 58.545 94.957 49.843C94.946 41.141 87.884 34.078 79.182 34.068Z" fill="white" stroke="#03030F" stroke-miterlimit="10"/>
    <path d="M37.878 45.9C38.086 45.9 38.255 45.9693 38.385 46.108C38.515 46.2467 38.58 46.42 38.58 46.628V54.207C38.58 54.4323 38.502 54.623 38.346 54.779C38.1987 54.9263 38.0123 55 37.787 55C37.6743 55 37.5573 54.9827 37.436 54.948C37.3233 54.9047 37.2367 54.8483 37.176 54.779L32.067 48.292L32.405 48.084V54.272C32.405 54.48 32.3357 54.6533 32.197 54.792C32.067 54.9307 31.8937 55 31.677 55C31.469 55 31.3 54.9307 31.17 54.792C31.04 54.6533 30.975 54.48 30.975 54.272V46.693C30.975 46.4677 31.0487 46.2813 31.196 46.134C31.352 45.978 31.5427 45.9 31.768 45.9C31.8893 45.9 32.015 45.926 32.145 45.978C32.275 46.0213 32.3703 46.0907 32.431 46.186L37.384 52.504L37.163 52.66V46.628C37.163 46.42 37.228 46.2467 37.358 46.108C37.488 45.9693 37.6613 45.9 37.878 45.9ZM43.6806 55.13C42.9439 55.13 42.3026 54.9783 41.7566 54.675C41.2192 54.363 40.8032 53.9427 40.5086 53.414C40.2226 52.8853 40.0796 52.2873 40.0796 51.62C40.0796 50.84 40.2356 50.177 40.5476 49.631C40.8682 49.0763 41.2842 48.6517 41.7956 48.357C42.3069 48.0623 42.8486 47.915 43.4206 47.915C43.8626 47.915 44.2786 48.006 44.6686 48.188C45.0672 48.37 45.4182 48.6213 45.7216 48.942C46.0249 49.254 46.2632 49.618 46.4366 50.034C46.6186 50.45 46.7096 50.892 46.7096 51.36C46.7009 51.568 46.6186 51.737 46.4626 51.867C46.3066 51.997 46.1246 52.062 45.9166 52.062H40.9506L40.5606 50.762H45.3316L45.0456 51.022V50.671C45.0282 50.4197 44.9372 50.1943 44.7726 49.995C44.6166 49.7957 44.4172 49.6397 44.1746 49.527C43.9406 49.4057 43.6892 49.345 43.4206 49.345C43.1606 49.345 42.9179 49.3797 42.6926 49.449C42.4672 49.5183 42.2722 49.6353 42.1076 49.8C41.9429 49.9647 41.8129 50.1857 41.7176 50.463C41.6222 50.7403 41.5746 51.0913 41.5746 51.516C41.5746 51.984 41.6699 52.3827 41.8606 52.712C42.0599 53.0327 42.3112 53.2797 42.6146 53.453C42.9266 53.6177 43.2559 53.7 43.6026 53.7C43.9232 53.7 44.1789 53.674 44.3696 53.622C44.5602 53.57 44.7119 53.5093 44.8246 53.44C44.9459 53.362 45.0542 53.297 45.1496 53.245C45.3056 53.167 45.4529 53.128 45.5916 53.128C45.7822 53.128 45.9382 53.193 46.0596 53.323C46.1896 53.453 46.2546 53.6047 46.2546 53.778C46.2546 54.012 46.1332 54.2243 45.8906 54.415C45.6652 54.6057 45.3489 54.7747 44.9416 54.922C44.5342 55.0607 44.1139 55.13 43.6806 55.13ZM48.2155 48.045C48.4669 48.045 48.6792 48.1533 48.8525 48.37L53.1945 53.765C53.3072 53.9037 53.3635 54.0597 53.3635 54.233C53.3635 54.4497 53.2812 54.636 53.1165 54.792C52.9519 54.948 52.7699 55.026 52.5705 55.026C52.3192 55.026 52.1069 54.9133 51.9335 54.688L47.5915 49.293C47.4789 49.1543 47.4225 48.9983 47.4225 48.825C47.4225 48.5997 47.5005 48.4133 47.6565 48.266C47.8212 48.1187 48.0075 48.045 48.2155 48.045ZM48.2285 55.013C48.0552 55.013 47.8819 54.948 47.7085 54.818C47.5439 54.6793 47.4615 54.5147 47.4615 54.324C47.4615 54.1507 47.5265 53.986 47.6565 53.83L49.6455 51.399L50.4255 52.699L48.8525 54.688C48.6879 54.9047 48.4799 55.013 48.2285 55.013ZM52.5575 48.045C52.7655 48.045 52.9389 48.1187 53.0775 48.266C53.2249 48.4047 53.2985 48.565 53.2985 48.747C53.2985 48.8337 53.2855 48.9203 53.2595 49.007C53.2335 49.0937 53.1859 49.176 53.1165 49.254L51.1535 51.646L50.3345 50.515L51.9335 48.396C52.1069 48.162 52.3149 48.045 52.5575 48.045ZM55.133 48.175H58.214C58.422 48.175 58.5953 48.2443 58.734 48.383C58.8726 48.5217 58.942 48.695 58.942 48.903C58.942 49.1023 58.8726 49.2713 58.734 49.41C58.5953 49.54 58.422 49.605 58.214 49.605H55.133C54.925 49.605 54.7516 49.5357 54.613 49.397C54.4743 49.2583 54.405 49.085 54.405 48.877C54.405 48.6777 54.4743 48.513 54.613 48.383C54.7516 48.2443 54.925 48.175 55.133 48.175ZM56.524 46.55C56.7493 46.55 56.9313 46.628 57.07 46.784C57.2173 46.9313 57.291 47.1177 57.291 47.343V53.128C57.291 53.2493 57.3126 53.349 57.356 53.427C57.408 53.505 57.473 53.5613 57.551 53.596C57.6376 53.6307 57.7286 53.648 57.824 53.648C57.928 53.648 58.0233 53.6307 58.11 53.596C58.1966 53.5527 58.2963 53.531 58.409 53.531C58.5303 53.531 58.6386 53.5873 58.734 53.7C58.838 53.8127 58.89 53.9687 58.89 54.168C58.89 54.4107 58.7556 54.61 58.487 54.766C58.227 54.922 57.9453 55 57.642 55C57.46 55 57.2563 54.987 57.031 54.961C56.8143 54.9263 56.6063 54.8527 56.407 54.74C56.2163 54.6187 56.056 54.4367 55.926 54.194C55.796 53.9513 55.731 53.6177 55.731 53.193V47.343C55.731 47.1177 55.8046 46.9313 55.952 46.784C56.108 46.628 56.2986 46.55 56.524 46.55ZM62.6233 55.13C62.1293 55.13 61.67 55.0303 61.2453 54.831C60.8206 54.6317 60.474 54.3457 60.2053 53.973C60.1013 53.817 60.0493 53.6653 60.0493 53.518C60.0493 53.3013 60.1316 53.1193 60.2963 52.972C60.4696 52.8247 60.6386 52.751 60.8033 52.751C60.9333 52.751 61.059 52.79 61.1803 52.868C61.3103 52.946 61.4273 53.037 61.5313 53.141C61.7046 53.297 61.8736 53.4097 62.0383 53.479C62.2116 53.5397 62.4066 53.57 62.6233 53.57C62.8833 53.57 63.126 53.505 63.3513 53.375C63.5766 53.245 63.7586 53.0717 63.8973 52.855C64.036 52.6383 64.1053 52.4043 64.1053 52.153V46.693C64.1053 46.4677 64.1876 46.2813 64.3523 46.134C64.517 45.978 64.7076 45.9 64.9243 45.9C65.167 45.9 65.362 45.978 65.5093 46.134C65.6566 46.2813 65.7303 46.4677 65.7303 46.693V52.153C65.7303 52.6817 65.5916 53.1713 65.3143 53.622C65.037 54.0727 64.6643 54.4367 64.1963 54.714C63.7283 54.9913 63.204 55.13 62.6233 55.13ZM67.1441 53.921C67.0575 53.7997 67.0185 53.6437 67.0271 53.453C67.0358 53.2623 67.1485 53.0977 67.3651 52.959C67.5038 52.8723 67.6511 52.8377 67.8071 52.855C67.9631 52.8637 68.1148 52.9417 68.2621 53.089C68.5135 53.3403 68.7778 53.5353 69.0551 53.674C69.3325 53.8127 69.6791 53.882 70.0951 53.882C70.2251 53.8733 70.3681 53.856 70.5241 53.83C70.6801 53.7953 70.8145 53.726 70.9271 53.622C71.0485 53.5093 71.1091 53.3403 71.1091 53.115C71.1091 52.9243 71.0441 52.7727 70.9141 52.66C70.7841 52.5473 70.6108 52.452 70.3941 52.374C70.1861 52.296 69.9521 52.2223 69.6921 52.153C69.4235 52.075 69.1461 51.9883 68.8601 51.893C68.5828 51.7977 68.3271 51.6763 68.0931 51.529C67.8591 51.373 67.6685 51.1693 67.5211 50.918C67.3738 50.6667 67.3001 50.3503 67.3001 49.969C67.3001 49.5357 67.4215 49.1673 67.6641 48.864C67.9068 48.5607 68.2188 48.3267 68.6001 48.162C68.9901 47.9973 69.3975 47.915 69.8221 47.915C70.0908 47.915 70.3725 47.9497 70.6671 48.019C70.9618 48.0797 71.2435 48.1837 71.5121 48.331C71.7808 48.4697 72.0061 48.656 72.1881 48.89C72.2835 49.02 72.3398 49.176 72.3571 49.358C72.3745 49.54 72.2921 49.7047 72.1101 49.852C71.9801 49.956 71.8285 50.0037 71.6551 49.995C71.4818 49.9777 71.3388 49.917 71.2261 49.813C71.0788 49.6223 70.8795 49.4707 70.6281 49.358C70.3855 49.2453 70.1038 49.189 69.7831 49.189C69.6531 49.189 69.5101 49.2063 69.3541 49.241C69.2068 49.267 69.0768 49.332 68.9641 49.436C68.8515 49.5313 68.7951 49.6873 68.7951 49.904C68.7951 50.1033 68.8601 50.2637 68.9901 50.385C69.1201 50.4977 69.2935 50.593 69.5101 50.671C69.7355 50.7403 69.9738 50.8097 70.2251 50.879C70.4851 50.9483 70.7495 51.0307 71.0181 51.126C71.2868 51.2213 71.5338 51.347 71.7591 51.503C71.9845 51.659 72.1665 51.8627 72.3051 52.114C72.4438 52.3567 72.5131 52.6687 72.5131 53.05C72.5131 53.492 72.3831 53.869 72.1231 54.181C71.8631 54.493 71.5381 54.7313 71.1481 54.896C70.7581 55.052 70.3595 55.13 69.9521 55.13C69.4408 55.13 68.9295 55.0433 68.4181 54.87C67.9068 54.688 67.4821 54.3717 67.1441 53.921Z" fill="black"/>
</svg>