<svg xmlns="http://www.w3.org/2000/svg" width="42" height="42" fill="none">
    <circle cx="21" cy="21" r="20.5" fill="#fff" stroke="#03030F"/>
    <path fill="#0A223E" d="M20.676 24.198c1.543 0 2.794-1.208 2.794-2.698s-1.25-2.698-2.794-2.698c-1.543 0-2.793 1.208-2.793 2.698s1.25 2.698 2.793 2.698"/>
    <path fill="#0A223E" fill-rule="evenodd" d="M7.316 19.837c-.674.588-.953 1.15-.953 1.663 0 .512.279 1.075.953 1.663s1.688 1.148 3 1.631c2.616.965 6.278 1.576 10.356 1.576s7.74-.61 10.357-1.576c1.311-.483 2.325-1.043 3-1.63.673-.589.952-1.152.952-1.664s-.279-1.075-.953-1.663-1.688-1.148-2.999-1.631c-2.617-.965-6.279-1.576-10.357-1.576s-7.74.61-10.357 1.576c-1.31.483-2.325 1.043-2.999 1.63m2.513-2.86c2.808-1.036 6.642-1.663 10.843-1.663s8.035.627 10.843 1.662c1.402.517 2.584 1.149 3.426 1.884s1.403 1.626 1.403 2.64-.56 1.905-1.403 2.64-2.024 1.367-3.426 1.884c-2.808 1.035-6.642 1.662-10.843 1.662s-8.035-.627-10.843-1.662c-1.402-.517-2.583-1.149-3.426-1.884S5 22.514 5 21.5s.56-1.905 1.403-2.64 2.024-1.367 3.426-1.884" clip-rule="evenodd"/>
    <path fill="#0A223E" fill-rule="evenodd" d="M15.486 9.497c-.865-.27-1.51-.221-1.969.035s-.824.77-1.014 1.629c-.19.857-.185 1.985.037 3.323.443 2.672 1.726 6.04 3.765 9.45 2.04 3.412 4.418 6.17 6.592 7.876 1.089.854 2.098 1.423 2.962 1.693s1.508.221 1.968-.035.825-.77 1.015-1.629c.19-.857.184-1.985-.038-3.323-.443-2.672-1.726-6.04-3.765-9.45-2.04-3.412-4.418-6.17-6.592-7.876-1.088-.854-2.097-1.423-2.961-1.693m3.82.672C21.64 12 24.12 14.893 26.22 18.407s3.455 7.034 3.931 9.9c.237 1.431.262 2.735.024 3.808-.237 1.072-.756 1.986-1.666 2.493s-1.988.484-3.069.147c-1.08-.338-2.237-1.01-3.402-1.924-2.332-1.831-4.811-4.724-6.912-8.238s-3.455-7.033-3.93-9.9c-.238-1.431-.263-2.735-.025-3.808s.757-1.986 1.666-2.493c.91-.507 1.989-.484 3.069-.147 1.08.338 2.237 1.01 3.402 1.924" clip-rule="evenodd"/>
    <path fill="#0A223E" fill-rule="evenodd" d="M28.842 11.16c-.19-.857-.556-1.372-1.015-1.628-.46-.256-1.104-.305-1.968-.035-.865.27-1.873.839-2.962 1.693-2.174 1.707-4.552 4.464-6.592 7.875s-3.322 6.779-3.765 9.45c-.222 1.339-.227 2.467-.037 3.324.19.858.555 1.373 1.015 1.63.459.255 1.103.304 1.967.034s1.874-.839 2.962-1.693c2.174-1.707 4.553-4.464 6.592-7.875 2.04-3.411 3.322-6.779 3.765-9.45.222-1.339.228-2.466.038-3.324m1.308 3.533c-.476 2.867-1.83 6.386-3.93 9.9S21.64 31 19.306 32.831c-1.165.914-2.322 1.586-3.402 1.924s-2.16.36-3.069-.147c-.91-.507-1.428-1.421-1.666-2.493-.238-1.073-.213-2.377.024-3.808.476-2.866 1.83-6.386 3.931-9.9s4.58-6.407 6.912-8.238c1.165-.914 2.322-1.586 3.402-1.924s2.16-.36 3.07.147 1.428 1.421 1.665 2.493c.238 1.073.213 2.377-.024 3.808" clip-rule="evenodd"/>
</svg>