<svg width="118" height="118" viewBox="0 0 118 118" fill="none" xmlns="http://www.w3.org/2000/svg">
    <path d="M79.182 34.068L25.737 34C17.035 33.99 9.99001 41.035 10 49.737C10.011 58.439 17.075 65.502 25.777 65.513L79.221 65.58C87.923 65.59 94.968 58.545 94.957 49.843C94.946 41.141 87.884 34.078 79.182 34.068Z" fill="white" stroke="#03030F" stroke-miterlimit="10"/>
    <path d="M31.056 55C30.8133 55 30.614 54.9263 30.458 54.779C30.302 54.623 30.224 54.4323 30.224 54.207V46.667H31.914V54.207C31.914 54.4323 31.8317 54.623 31.667 54.779C31.511 54.9263 31.3073 55 31.056 55ZM28.183 47.395C27.9577 47.395 27.767 47.3257 27.611 47.187C27.4637 47.0483 27.39 46.8663 27.39 46.641C27.39 46.4157 27.4637 46.238 27.611 46.108C27.767 45.9693 27.9577 45.9 28.183 45.9H33.955C34.1803 45.9 34.3667 45.9693 34.514 46.108C34.67 46.2467 34.748 46.4287 34.748 46.654C34.748 46.8793 34.67 47.0613 34.514 47.2C34.3667 47.33 34.1803 47.395 33.955 47.395H28.183ZM40.3818 47.915C40.6071 47.915 40.7934 47.9887 40.9408 48.136C41.0881 48.2833 41.1618 48.474 41.1618 48.708V54.207C41.1618 54.4323 41.0881 54.623 40.9408 54.779C40.7934 54.9263 40.6071 55 40.3818 55C40.1564 55 39.9701 54.9263 39.8228 54.779C39.6754 54.623 39.6018 54.4323 39.6018 54.207V53.57L39.8878 53.687C39.8878 53.7997 39.8271 53.9383 39.7058 54.103C39.5844 54.259 39.4198 54.415 39.2118 54.571C39.0038 54.727 38.7568 54.8613 38.4708 54.974C38.1934 55.078 37.8901 55.13 37.5608 55.13C36.9628 55.13 36.4211 54.9783 35.9358 54.675C35.4504 54.363 35.0648 53.9383 34.7788 53.401C34.5014 52.855 34.3628 52.231 34.3628 51.529C34.3628 50.8183 34.5014 50.1943 34.7788 49.657C35.0648 49.111 35.4461 48.6863 35.9228 48.383C36.3994 48.071 36.9281 47.915 37.5088 47.915C37.8814 47.915 38.2238 47.9713 38.5358 48.084C38.8478 48.1967 39.1164 48.3397 39.3418 48.513C39.5758 48.6863 39.7534 48.864 39.8748 49.046C40.0048 49.2193 40.0698 49.3667 40.0698 49.488L39.6018 49.657V48.708C39.6018 48.4827 39.6754 48.2963 39.8228 48.149C39.9701 47.993 40.1564 47.915 40.3818 47.915ZM37.7558 53.7C38.1371 53.7 38.4708 53.6047 38.7568 53.414C39.0428 53.2233 39.2638 52.9633 39.4198 52.634C39.5844 52.3047 39.6668 51.9363 39.6668 51.529C39.6668 51.113 39.5844 50.7403 39.4198 50.411C39.2638 50.0817 39.0428 49.8217 38.7568 49.631C38.4708 49.4403 38.1371 49.345 37.7558 49.345C37.3831 49.345 37.0538 49.4403 36.7678 49.631C36.4818 49.8217 36.2564 50.0817 36.0918 50.411C35.9358 50.7403 35.8578 51.113 35.8578 51.529C35.8578 51.9363 35.9358 52.3047 36.0918 52.634C36.2564 52.9633 36.4818 53.2233 36.7678 53.414C37.0538 53.6047 37.3831 53.7 37.7558 53.7ZM44.3199 54.207C44.3199 54.4323 44.2462 54.623 44.0989 54.779C43.9515 54.9263 43.7652 55 43.5399 55C43.3145 55 43.1282 54.9263 42.9809 54.779C42.8335 54.623 42.7599 54.4323 42.7599 54.207V48.838C42.7599 48.6127 42.8335 48.4263 42.9809 48.279C43.1282 48.123 43.3145 48.045 43.5399 48.045C43.7652 48.045 43.9515 48.123 44.0989 48.279C44.2462 48.4263 44.3199 48.6127 44.3199 48.838V54.207ZM43.5269 47.2C43.2322 47.2 43.0242 47.1523 42.9029 47.057C42.7815 46.9617 42.7209 46.7927 42.7209 46.55V46.303C42.7209 46.0517 42.7859 45.8827 42.9159 45.796C43.0545 45.7007 43.2625 45.653 43.5399 45.653C43.8432 45.653 44.0555 45.7007 44.1769 45.796C44.2982 45.8913 44.3589 46.0603 44.3589 46.303V46.55C44.3589 46.8013 44.2939 46.9747 44.1639 47.07C44.0339 47.1567 43.8215 47.2 43.5269 47.2ZM47.6131 54.207C47.6131 54.4323 47.5351 54.623 47.3791 54.779C47.2318 54.9263 47.0455 55 46.8201 55C46.6035 55 46.4215 54.9263 46.2741 54.779C46.1268 54.623 46.0531 54.4323 46.0531 54.207V46.173C46.0531 45.9477 46.1268 45.7613 46.2741 45.614C46.4301 45.458 46.6208 45.38 46.8461 45.38C47.0715 45.38 47.2535 45.458 47.3921 45.614C47.5395 45.7613 47.6131 45.9477 47.6131 46.173V54.207ZM57.2446 48.045C57.4439 48.045 57.6173 48.123 57.7646 48.279C57.9119 48.4263 57.9856 48.617 57.9856 48.851C57.9856 48.9117 57.9813 48.968 57.9726 49.02C57.9639 49.0633 57.9509 49.1067 57.9336 49.15L55.9446 54.506C55.8839 54.6793 55.7756 54.8137 55.6196 54.909C55.4636 54.9957 55.2989 55.026 55.1256 55C54.8309 54.9827 54.6099 54.818 54.4626 54.506L53.1756 50.801L53.5136 50.814L52.3046 54.506C52.1573 54.818 51.9363 54.9827 51.6416 55C51.4769 55.026 51.3123 54.9957 51.1476 54.909C50.9916 54.8137 50.8833 54.6793 50.8226 54.506L48.8336 49.15C48.7989 49.0547 48.7816 48.955 48.7816 48.851C48.7816 48.643 48.8509 48.4567 48.9896 48.292C49.1283 48.1273 49.3189 48.045 49.5616 48.045C49.7263 48.045 49.8736 48.084 50.0036 48.162C50.1336 48.24 50.2246 48.3657 50.2766 48.539L51.8496 52.803L51.5246 52.777L52.7076 49.566C52.8463 49.2453 53.0846 49.085 53.4226 49.085C53.6133 49.085 53.7563 49.1283 53.8516 49.215C53.9556 49.293 54.0379 49.41 54.0986 49.566L55.2816 52.777L54.8916 52.829L56.4906 48.539C56.5946 48.2097 56.8459 48.045 57.2446 48.045ZM60.6841 54.207C60.6841 54.4323 60.6105 54.623 60.4631 54.779C60.3158 54.9263 60.1295 55 59.9041 55C59.6788 55 59.4925 54.9263 59.3451 54.779C59.1978 54.623 59.1241 54.4323 59.1241 54.207V48.838C59.1241 48.6127 59.1978 48.4263 59.3451 48.279C59.4925 48.123 59.6788 48.045 59.9041 48.045C60.1295 48.045 60.3158 48.123 60.4631 48.279C60.6105 48.4263 60.6841 48.6127 60.6841 48.838V54.207ZM59.8911 47.2C59.5965 47.2 59.3885 47.1523 59.2671 47.057C59.1458 46.9617 59.0851 46.7927 59.0851 46.55V46.303C59.0851 46.0517 59.1501 45.8827 59.2801 45.796C59.4188 45.7007 59.6268 45.653 59.9041 45.653C60.2075 45.653 60.4198 45.7007 60.5411 45.796C60.6625 45.8913 60.7231 46.0603 60.7231 46.303V46.55C60.7231 46.8013 60.6581 46.9747 60.5281 47.07C60.3981 47.1567 60.1858 47.2 59.8911 47.2ZM66.0054 47.915C66.6467 47.915 67.132 48.0493 67.4614 48.318C67.7994 48.5867 68.029 48.9463 68.1504 49.397C68.2804 49.839 68.3454 50.333 68.3454 50.879V54.207C68.3454 54.4323 68.2717 54.623 68.1244 54.779C67.977 54.9263 67.7907 55 67.5654 55C67.34 55 67.1537 54.9263 67.0064 54.779C66.859 54.623 66.7854 54.4323 66.7854 54.207V50.879C66.7854 50.593 66.7464 50.3373 66.6684 50.112C66.599 49.878 66.469 49.6917 66.2784 49.553C66.0877 49.4143 65.8147 49.345 65.4594 49.345C65.1127 49.345 64.818 49.4143 64.5754 49.553C64.3414 49.6917 64.1594 49.878 64.0294 50.112C63.908 50.3373 63.8474 50.593 63.8474 50.879V54.207C63.8474 54.4323 63.7737 54.623 63.6264 54.779C63.479 54.9263 63.2927 55 63.0674 55C62.842 55 62.6557 54.9263 62.5084 54.779C62.361 54.623 62.2874 54.4323 62.2874 54.207V48.838C62.2874 48.6127 62.361 48.4263 62.5084 48.279C62.6557 48.123 62.842 48.045 63.0674 48.045C63.2927 48.045 63.479 48.123 63.6264 48.279C63.7737 48.4263 63.8474 48.6127 63.8474 48.838V49.397L63.6524 49.358C63.7304 49.2107 63.843 49.0547 63.9904 48.89C64.1377 48.7167 64.311 48.5563 64.5104 48.409C64.7097 48.2617 64.935 48.1447 65.1864 48.058C65.4377 47.9627 65.7107 47.915 66.0054 47.915ZM75.7255 45.38C75.9509 45.38 76.1372 45.4537 76.2845 45.601C76.4319 45.7483 76.5055 45.939 76.5055 46.173V54.207C76.5055 54.4323 76.4319 54.623 76.2845 54.779C76.1372 54.9263 75.9509 55 75.7255 55C75.5002 55 75.3139 54.9263 75.1665 54.779C75.0192 54.623 74.9455 54.4323 74.9455 54.207V53.57L75.2315 53.687C75.2315 53.7997 75.1709 53.9383 75.0495 54.103C74.9282 54.259 74.7635 54.415 74.5555 54.571C74.3475 54.727 74.1005 54.8613 73.8145 54.974C73.5372 55.078 73.2339 55.13 72.9045 55.13C72.3065 55.13 71.7649 54.9783 71.2795 54.675C70.7942 54.363 70.4085 53.9383 70.1225 53.401C69.8452 52.855 69.7065 52.231 69.7065 51.529C69.7065 50.8183 69.8452 50.1943 70.1225 49.657C70.4085 49.111 70.7899 48.6863 71.2665 48.383C71.7432 48.071 72.2719 47.915 72.8525 47.915C73.2252 47.915 73.5675 47.9713 73.8795 48.084C74.1915 48.1967 74.4602 48.3397 74.6855 48.513C74.9195 48.6863 75.0972 48.864 75.2185 49.046C75.3485 49.2193 75.4135 49.3667 75.4135 49.488L74.9455 49.657V46.173C74.9455 45.9477 75.0192 45.7613 75.1665 45.614C75.3139 45.458 75.5002 45.38 75.7255 45.38ZM73.0995 53.7C73.4809 53.7 73.8145 53.6047 74.1005 53.414C74.3865 53.2233 74.6075 52.9633 74.7635 52.634C74.9282 52.3047 75.0105 51.9363 75.0105 51.529C75.0105 51.113 74.9282 50.7403 74.7635 50.411C74.6075 50.0817 74.3865 49.8217 74.1005 49.631C73.8145 49.4403 73.4809 49.345 73.0995 49.345C72.7269 49.345 72.3975 49.4403 72.1115 49.631C71.8255 49.8217 71.6002 50.0817 71.4355 50.411C71.2795 50.7403 71.2015 51.113 71.2015 51.529C71.2015 51.9363 71.2795 52.3047 71.4355 52.634C71.6002 52.9633 71.8255 53.2233 72.1115 53.414C72.3975 53.6047 72.7269 53.7 73.0995 53.7Z" fill="black"/>
</svg>